<svg width="74" height="74" viewBox="0 0 74 74" fill="none" xmlns="http://www.w3.org/2000/svg">
<circle cx="37" cy="37" r="37" fill="#2240CD"/>
<path d="M29.4062 22.625C27.5002 22.625 25.9375 24.1877 25.9375 26.0938V46.9062C25.9375 48.8123 27.5002 50.375 29.4062 50.375H45.5938C47.4998 50.375 49.0625 48.8123 49.0625 46.9062V30.24L41.4475 22.625H29.4062ZM29.4062 24.9375H39.8125V31.875H46.75V46.9062C46.75 47.5566 46.2441 48.0625 45.5938 48.0625H29.4062C28.7559 48.0625 28.25 47.5566 28.25 46.9062V26.0938C28.25 25.4434 28.7559 24.9375 29.4062 24.9375ZM42.125 26.5725L45.115 29.5625H42.125V26.5725ZM32.875 36.5V38.8125H42.125V36.5H32.875ZM32.875 41.125V43.4375H39.8125V41.125H32.875Z" fill="white"/>
</svg>
